<?xml version="1.0" encoding="utf-8"?>
<!-- Generator: Adobe Illustrator 19.1.0, SVG Export Plug-In . SVG Version: 6.00 Build 0)  -->
<svg version="1.1" id="Layer_1" xmlns="http://www.w3.org/2000/svg" xmlns:xlink="http://www.w3.org/1999/xlink" x="0px" y="0px"
	 viewBox="-439 223.2 80 115.3" style="enable-background:new -439 223.2 80 115.3;" xml:space="preserve">
<g id="paul_1_">
	<path d="M-360.9,293.8c-2.1-2.6-3-0.8-3.8,0.5c-1.2,2-2.1,4.1-3.3,6.1c-0.8,1.6-1.8,3-2.8,4.7c0.8,0.4,1.5,0.8,2.5,1.4
		c-1.2,1.3-2.4,2.5-4.1,4.4c0.7-4.9,1.7-9,1.7-13c0.1-6.1-0.1-12.4-0.9-18.4c-0.3-2.2-2.4-4.3-3.9-6.2c-0.6-0.7-2.1-0.8-3.3-1.1
		c-0.7-0.2-1.5,0.1-2.3,0c-4.2-0.5-8.3-1.1-12.7-1c1.9,0.8,3.7,1.6,5.5,2.3c-7.1,0.1-13.5-1.3-17.9-7.7c-0.6,3,1.4,4.5,3.3,5.8
		c-4.5-1.1-5.8-3.3-4.9-8.3c-3,1.4-5.8,2.9-5.4,6.3c-3.3,1.5-6.6,2.5-9.2,4.5c-5.2,3.8-5.3,9.6-5,15.3c0.2,4,0.6,8,0.9,12
		c-0.3,0.1-0.6,0.2-0.8,0.3c-1.6-3.8-3.3-7.6-5-11.4c-0.2-0.4-0.4-0.9-0.8-1.1c-5.4-2.8-5.4-8.2-5.8-12.9c-0.5-5.8,0.5-11.7,1-17.7
		c0.1-1.2,0.5-2.4,1-3.5c1.2-3.2,2.4-6.4,3.8-9.5c0.6-1.2,1.6-2.3,2.5-3.3c2.1-2.4,4.7-4.5,6.5-7.2c2.1-3,4.6-4.3,8.3-4.2
		c1.6,0.1,3.3-0.4,4.7-1.1c2.9-1.4,5.5-2.8,8.6-0.5c0.6,0.5,1.8,0.1,2.7,0.1c5.8,0.3,11.6,0.3,17.3,1.2c2.7,0.5,5.2,2.6,7.6,4.3
		c2.4,1.8,4.4,4,6.5,6.1c4.2,4.1,6.3,9,6.2,14.8c-0.1,3.2,0.5,6,2,8.9c1.9,3.4,2.7,7.2,1.9,11.3c-0.7,3.9-0.3,8.1-0.8,12
		C-359.2,289.9-360.1,291.6-360.9,293.8z"/>
	<path d="M-385.8,319.7c-1-1-1.7-1.8-2.5-2.3c-1.8-1-3.7-2.1-5.7-2.4c-4.2-0.6-6.9-2.7-6.7-5.8c0.2-1.9,0.8-2.8,2.9-1.9
		c2.4,1.1,4.8,2,7.3,2.9C-385.5,311.9-384.3,314-385.8,319.7z"/>
	<path d="M-415,318.8c-1.2-1.5-0.7-3.9,0.8-5.2c3.3-2.5,6.9-4.6,10.6-6.5c1.3-0.7,2.9,1.6,2.1,3.2c-0.7,1.4-1.9,2.9-3.2,3.7
		C-407.7,315.8-411.2,317.1-415,318.8z"/>
	<path d="M-409.2,281.7c-2.2-1-4.3-2.1-6.6-3c-3.9-1.7-4.3-1.6-6.6,1.9c-0.5,0.8-1.2,1.5-2,2.4c-0.6-3.6,0.7-6.3,3.3-7.7
		c3.6-1.9,7.7-0.7,12,3.5c0.6,0.6,0.6,1.6,0.8,2.5C-408.5,281.4-408.8,281.6-409.2,281.7z"/>
	<path d="M-395.3,280.9c0.9-0.5,1.7-1.4,2.7-1.5c3.7-0.5,7.4-1.1,11.1-1.1c3.8,0.1,6.8,3.6,6.8,7.6c-0.8-0.6-1.6-0.9-2.1-1.5
		c-3.5-4-7.8-4.2-12.6-3.2c-1.8,0.5-3.8,0.4-5.6,0.6C-395.2,281.5-395.3,281.2-395.3,280.9z"/>
	<path d="M-431.4,301.9c1.5,0.7,3.2,1.5,4.9,2.3c0.2-0.3,0.4-0.6,0.6-0.8c0.7,2.3,1.4,4.5,2.1,6.8
		C-427.4,308.8-430.1,305.7-431.4,301.9z"/>
</g>
<g>
	<path d="M-408.4,336.8v-7.9h2c1.3,0,2,0.8,2,2.3c0,0.6-0.2,1.1-0.5,1.5c-0.3,0.3-0.8,0.5-1.5,0.5h-0.8v3.7h-1.2V336.8z
		 M-407.3,332.3h0.3c0.3,0,0.5,0,0.6,0c0.2,0,0.3-0.1,0.4-0.2s0.2-0.2,0.3-0.3c0.1-0.2,0.1-0.3,0.1-0.6c0-0.3,0-0.5-0.1-0.7
		c0-0.2-0.1-0.3-0.2-0.4s-0.3-0.2-0.4-0.2c-0.2,0-0.4-0.1-0.7-0.1h-0.3C-407.3,329.8-407.3,332.3-407.3,332.3z"/>
	<path d="M-404.6,336.8l1.7-7.9h1.1l1.7,7.9h-1.1l-0.4-2h-1.4l-0.4,2H-404.6z M-402.9,334h1.1l-0.6-3.4L-402.9,334z"/>
	<path d="M-396.3,336.8c-0.3,0.1-0.6,0.1-0.9,0.1c-0.3,0-0.6,0-0.9-0.1c-0.3-0.1-0.5-0.2-0.6-0.4c-0.2-0.2-0.3-0.4-0.4-0.6
		c-0.1-0.2-0.2-0.5-0.2-0.8c0-0.3-0.1-0.6-0.1-1v-5.1h1.1v5.1c0,0.2,0,0.4,0,0.6c0,0.2,0,0.3,0.1,0.5c0,0.2,0.1,0.3,0.2,0.4
		s0.2,0.2,0.3,0.3c0.1,0.1,0.3,0.1,0.5,0.1c0.2,0,0.4,0,0.5-0.1c0.1-0.1,0.3-0.2,0.3-0.3c0.1-0.1,0.1-0.3,0.2-0.4
		c0-0.2,0.1-0.4,0.1-0.5c0-0.2,0-0.4,0-0.6v-5.1h1.1v5.1c0,0.4,0,0.7-0.1,1c0,0.3-0.1,0.6-0.2,0.8c-0.1,0.2-0.2,0.5-0.4,0.6
		C-395.8,336.6-396.1,336.7-396.3,336.8z"/>
	<path d="M-393.9,336.8v-7.9h1.1v7.1h2v0.8H-393.9z"/>
</g>
</svg>
